<svg id="Ebene_11" data-name="Ebene 11" xmlns="http://www.w3.org/2000/svg" viewBox="0 0 42.5 8.42"><path d="M300,218.72q5.44,2,10.81,4.24,2.65,1.09,5.28,2.23a12.39,12.39,0,0,0,2.34,1c.56.1,1.31-.37,1.82-.56,7.15-2.64,14.35-5.16,21.72-7.09a.38.38,0,0,0-.09-.74c-13.86,0-27.71,0-41.57.06a.38.38,0,0,0,0,.75c13.86,0,27.71-.11,41.57-.06l-.1-.74c-7.22,1.89-14.28,4.35-21.28,6.93a3.6,3.6,0,0,1-2.57.42c-.85-.3-1.68-.74-2.52-1.1-1.53-.65-3.07-1.3-4.61-1.93q-5.26-2.16-10.6-4.15c-.45-.17-.65.56-.2.72Z" transform="translate(-299.73 -217.8)"/></svg>