<svg xmlns="http://www.w3.org/2000/svg" xmlns:xlink="http://www.w3.org/1999/xlink" viewBox="0 0 1277.11 663.51"><defs><style>.cls-1{fill:url(#Indigoblau);}.cls-2{fill:url(#Magenta);}.cls-3{fill:url(#Rot);}.cls-4{fill:url(#Orange);}.cls-5{fill:url(#Gelb);}.cls-6{fill:#fff;}.cls-7{fill:url(#Unbenannter_Verlauf_15);}.cls-8{fill:url(#Blau);}</style><linearGradient id="Indigoblau" x1="63.46" y1="430.75" x2="1323.6" y2="430.75" gradientTransform="translate(23.63 -37.2) rotate(3)" gradientUnits="userSpaceOnUse"><stop offset="0" stop-color="#5e4f9c"/><stop offset="0.5" stop-color="#312783"/><stop offset="1" stop-color="#463a6a"/></linearGradient><linearGradient id="Magenta" x1="54.08" y1="433.7" x2="1324.7" y2="433.7" gradientTransform="translate(23.63 -37.2) rotate(3)" gradientUnits="userSpaceOnUse"><stop offset="0" stop-color="#d870a9"/><stop offset="0.5" stop-color="#c8007f"/><stop offset="1" stop-color="#a11880"/></linearGradient><linearGradient id="Rot" x1="54.4" y1="474.45" x2="1327.33" y2="474.45" gradientTransform="translate(23.63 -37.2) rotate(3)" gradientUnits="userSpaceOnUse"><stop offset="0" stop-color="#ef7e7c"/><stop offset="0.5" stop-color="#e6304e"/><stop offset="1" stop-color="#d90d3a"/></linearGradient><linearGradient id="Orange" x1="54.79" y1="401.34" x2="1326.81" y2="401.34" gradientTransform="translate(23.63 -37.2) rotate(3)" gradientUnits="userSpaceOnUse"><stop offset="0" stop-color="#f3944c"/><stop offset="0.5" stop-color="#ed6d05"/><stop offset="1" stop-color="#d25917"/></linearGradient><linearGradient id="Gelb" x1="51.32" y1="505.49" x2="1326.81" y2="505.49" gradientTransform="translate(23.63 -37.2) rotate(3)" gradientUnits="userSpaceOnUse"><stop offset="0" stop-color="#fff6ad"/><stop offset="0.5" stop-color="#ffed00"/><stop offset="1" stop-color="#ffd800"/></linearGradient><linearGradient id="Unbenannter_Verlauf_15" x1="54.66" y1="510.89" x2="1321.87" y2="510.89" gradientTransform="translate(23.63 -37.2) rotate(3)" gradientUnits="userSpaceOnUse"><stop offset="0" stop-color="#0fa307"/><stop offset="0.23" stop-color="#08a308"/><stop offset="1" stop-color="#00863e"/></linearGradient><linearGradient id="Blau" x1="54.4" y1="572.88" x2="1326.81" y2="572.88" gradientTransform="translate(23.63 -37.2) rotate(3)" gradientUnits="userSpaceOnUse"><stop offset="0" stop-color="#47c1f0"/><stop offset="0.5" stop-color="#00a0e4"/><stop offset="1" stop-color="#008cd3"/></linearGradient></defs><g id="schlecht"><path class="cls-1" d="M52.16,630.45A772.29,772.29,0,0,1,233.51,332.74c38.68-39.42,82.93-75.41,135.35-92.81,31.56-10.47,65.05-13.85,98.29-15A751.27,751.27,0,0,1,621,235.74c11.87,2.07,24.35,4.39,35.71.37,10.26-3.62,18.06-11.88,26.76-18.41,40-30,96.9-22,143.64-4.13s91.5,44.58,141.41,48.41c50.42,3.88,102.73-16,150.74-.1,40.09,13.28,68.64,49.33,86.92,87.41s28.62,79.53,46.41,117.83c25.4,54.7,66.85,107.39,61.16,167.43" transform="translate(-40.91 -112.41)"/></g><g id="aengstlich"><path class="cls-2" d="M42.93,632.1C41.74,615.56,53.42,600.28,67.8,592S99,580.94,115.24,577.81A817.61,817.61,0,0,0,377.85,478c7.66-4.55,15.47-9.31,24.24-10.86,8.13-1.43,16.46,0,24.62,1.25,96.44,14.46,206.76-10.41,262.34-90.53,19.8-28.55,31.39-62.11,50.82-90.92a198,198,0,0,1,65.18-60.64c22.27-12.79,48-21.28,73.5-18.2,37.19,4.5,66.83,32,100.28,48.86,41.36,20.88,89.23,25.63,131.21,45.23,42.22,19.71,76.25,53.37,106.82,88.53,59.06,68,111,153.75,97.11,242.7" transform="translate(-40.91 -112.41)"/></g><g id="wuetend"><path class="cls-3" d="M43,632C91.71,505,212.59,416.8,319.43,332.63,340.59,316,362.22,299,387.52,289.78c41.11-15,86.66-8,129.55.72,12.88,2.62,25.94,5.39,39,4.41,16.82-1.25,32.52-8.57,48.92-12.52,39-9.4,79.9.56,118.3,12.25q47.63,14.5,94,32.61c14.57,5.69,29.18,11.68,44.62,14.17,16.31,2.63,33,1.27,49.48.89,40.33-.92,118.44-56.73,155.42-40.62C1141.54,334.2,1151.25,460.83,1219,506c27,18,33.27,24.94,56,45,18.14,16,49,48,42,83.45" transform="translate(-40.91 -112.41)"/></g><g id="angewidert"><path class="cls-4" d="M43.38,632.09c21.76-166.77,104.1-318.64,185-466.11,12-21.82,26.42-45.67,50.48-52,18.8-5,39.14,2.59,54.11,15s25.59,29.15,36,45.6c24.08,38.22,48.5,76.83,80.89,108.32s74,55.66,119.14,58.39C627.33,344.8,692,313.93,741,346c15.06,9.85,26.16,24.53,38,38.1,84.62,97.26,222.39,145.09,349.07,121.2,29.77-5.62,59-14.9,89.25-16.62,7.14-.41,14.53-.35,21.14,2.39s11.87,8,16.71,13.24c32.52,35.53,54.39,83.14,61.86,130.72" transform="translate(-40.91 -112.41)"/></g><g id="traurig"><path class="cls-5" d="M43,632c-9.22-36.52,13.61-75.68,39-103.5S141,482,174,463.91c28.85-15.85,58.09-31.86,90-40.11,47.19-12.22,97.58-6.79,144.79-18.94,35.6-9.17,67.9-27.94,102.34-40.82s73.92-19.53,107.32-4.16c14.73,6.78,27.31,17.42,41.28,25.65,42.58,25.09,98.55,25.59,141.58,1.27,14.24-8,27.08-18.55,42-25.33,27.79-12.67,60.54-11.06,89.42-1.11s54.45,27.6,78.42,46.54c27.85,22,56.9,47.25,92.35,49.36,6,.36,12.2,0,18.12,1.34,13.67,3.07,23.72,14.28,33.73,24.1,40.86,40.06,95.39,65.1,132.23,108.9,11.42,13.58,20.89,28.69,29.47,44.22" transform="translate(-40.91 -112.41)"/></g><g id="gluecklich"><path class="cls-6" d="M817.44,775.91a1.5,1.5,0,0,0,0-3,1.5,1.5,0,0,0,0,3Z" transform="translate(-40.91 -112.41)"/><path class="cls-7" d="M43.25,632.2c21.51-31.35,35.39-65,56.9-96.3,17.67-25.75,43.26-49.55,66.87-70,25.38-22,54.76-46,85.16-60.23,51.44-24.1,107-63.69,163.71-66.51,33.51-1.67,77.47,6.8,110.48,12.8,55.13,10,98.06,37.26,147.91,62.84,44.14,22.64,94,44.54,139.87,63.41,19.9,8.18,45.76,3.37,66.65,8.5,85.34,21,155.48,69.2,240.82,90.17,60.81,14.94,132,36.41,190.38,59.11" transform="translate(-40.91 -112.41)"/></g><g id="Ebene_18" data-name="Ebene 18"><path class="cls-8" d="M43,632c74.14-23,152.72-48,230.12-42.17,28.37,2.12,57.07,8.11,85,2.53,37.42-7.48,68.17-34.76,105-44.67C544,525.94,624.76,592,708.28,586.22c95.05-6.53,170.83-103.94,265.61-94.28,39.76,4.05,74.7,26.77,109.67,46.12,73,40.42,154.62,69.41,233.44,96.94" transform="translate(-40.91 -112.41)"/></g></svg>