<svg id="Ebene_4" data-name="Ebene 4" xmlns="http://www.w3.org/2000/svg" viewBox="0 0 37 27.75"><path d="M195.86,195.16q8.4-13,15.89-26.65,10.51,11.79,20.36,24.23c-12.14,1.16-24.22,1.94-36.06,2.77" transform="translate(-195.47 -168.14)"/><path d="M196.18,195.35q8.41-13,15.9-26.65l-.59.08Q222,180.6,231.84,193l.27-.64c-12,1.14-24,1.92-36.06,2.77-.48,0-.49.78,0,.75,12-.85,24.06-1.63,36.06-2.77a.39.39,0,0,0,.27-.64q-9.84-12.42-20.36-24.23a.38.38,0,0,0-.59.07q-7.49,13.6-15.9,26.65c-.26.41.39.79.65.38Z" transform="translate(-195.47 -168.14)"/></svg>