<svg id="Ebene_3" data-name="Ebene 3" xmlns="http://www.w3.org/2000/svg" viewBox="0 0 20.07 29.69"><path d="M164.31,195.87c1.93-7.73,4.51-18.68,8.37-28.34,2.57,9.69,8.38,20.61,10.95,28.94-6.23.12-13.14-.28-19.32-.6" transform="translate(-163.94 -167.17)"/><path d="M164.67,196c2.39-9.56,4.73-19.16,8.38-28.34h-.73c2.69,10,7.86,19.08,11,28.94l.36-.48c-6.44.11-12.88-.26-19.32-.59-.48,0-.48.72,0,.75,6.44.33,12.88.7,19.32.59a.38.38,0,0,0,.37-.47c-3.09-9.86-8.26-18.94-10.95-28.94a.38.38,0,0,0-.73,0c-3.64,9.18-6,18.78-8.37,28.34-.12.47.61.67.72.2Z" transform="translate(-163.94 -167.17)"/></svg>