<svg id="Ebene_2" data-name="Ebene 2" xmlns="http://www.w3.org/2000/svg" viewBox="0 0 11.8 43.74"><path d="M134.5,195.34c-.21-14,2.29-28,4.78-41.82q2.28,21.54,6.22,42.92a63,63,0,0,1-11.07-.43" transform="translate(-134.07 -153.15)"/><path d="M134.88,195.34c-.19-14.06,2.28-27.94,4.76-41.72l-.74-.1q2.31,21.61,6.24,43l.36-.48a66.06,66.06,0,0,1-11.07-.42c-.48-.06-.47.69,0,.75a66.06,66.06,0,0,0,11.07.42.38.38,0,0,0,.37-.47q-3.93-21.28-6.22-42.82c0-.39-.65-.56-.73-.1-2.49,13.85-5,27.8-4.79,41.92a.38.38,0,0,0,.75,0Z" transform="translate(-134.07 -153.15)"/></svg>