<svg id="Ebene_6" data-name="Ebene 6" xmlns="http://www.w3.org/2000/svg" viewBox="0 0 42.49 8.73"><path d="M341.87,198.9Q332.2,195,323.55,191c-7.68,2.66-15.68,5.33-23.45,7.17,14,.35,27.9.58,41.55.83" transform="translate(-299.73 -190.65)"/><path d="M342,198.54c-3.72-1.48-7.41-3-11.07-4.62q-2.44-1.06-4.88-2.18a12.49,12.49,0,0,0-2.32-1.08,4.33,4.33,0,0,0-1.83.53c-7.21,2.48-14.46,4.86-21.87,6.63a.38.38,0,0,0,.1.74c13.85.34,27.7.57,41.55.82a.38.38,0,0,0,0-.75c-13.85-.25-27.7-.48-41.55-.82l.1.74c7.25-1.74,14.36-4.05,21.41-6.48a3.61,3.61,0,0,1,2.58-.36c.85.32,1.67.78,2.5,1.15q2.44,1.11,4.92,2.18,5,2.19,10.16,4.22c.45.18.64-.54.2-.72Z" transform="translate(-299.73 -190.65)"/></svg>