<svg id="Ebene_5" data-name="Ebene 5" xmlns="http://www.w3.org/2000/svg" viewBox="0 0 41.1 17.75"><path d="M285.13,194.29q-9.35-8.17-17.69-16.78-11.69,7.43-22.65,15.26c13.51.73,27,1.22,40.13,1.74" transform="translate(-244.43 -177.14)"/><path d="M285.4,194q-9.16-8-17.69-16.78a.38.38,0,0,0-.46-.06q-11.52,7.32-22.65,15.25a.38.38,0,0,0,.19.7c13.37.72,26.75,1.21,40.13,1.75.49,0,.49-.73,0-.75-13.38-.54-26.76-1-40.13-1.75l.19.7q11.11-7.93,22.65-15.25l-.45-.06q8.51,8.75,17.69,16.78c.36.32.89-.21.53-.53Z" transform="translate(-244.43 -177.14)"/></svg>