<svg id="Ebene_3" data-name="Ebene 3" xmlns="http://www.w3.org/2000/svg" viewBox="0 0 214.64 70.24"><defs><style>.cls-1{fill:#bf4c0c;}.cls-2{font-size:36px;fill:#fff;stroke:#000;stroke-miterlimit:10;stroke-width:0.75px;font-family:Menlo-Regular, Menlo;}</style></defs><path class="cls-1" d="M221.89,232.21q18.84-26.44,36.17-53.94,4.88-7.74,9.63-15.57l-.59.08q22,25,42.76,50.9,5.92,7.38,11.75,14.86l.27-.64c-26,1.67-52,2.18-78,3q-10.95.31-21.89.75c-.48,0-.48.77,0,.76,25.84-1.06,51.71-1.42,77.55-2.54,7.45-.33,14.89-.71,22.33-1.19a.39.39,0,0,0,.26-.65Q301.68,201.8,280,176.53q-6.15-7.18-12.4-14.28a.37.37,0,0,0-.59.08q-16.89,27.75-35.31,54.54-5.19,7.51-10.48,15c-.28.4.37.77.64.38Z" transform="translate(-123.36 -162.14)"/><path class="cls-1" d="M256.63,191.64q-2.9,15.63-4.69,31.52Q237.39,216,223.2,208c11.06-5.81,22.22-11.24,33.12-16.63" transform="translate(-123.36 -162.14)"/><text class="cls-2" transform="translate(0.38 44.06)">moodscape</text></svg>